<svg width="22" height="23" viewBox="0 0 22 23" fill="none" xmlns="http://www.w3.org/2000/svg">
<path d="M21.6353 2.0727L12.4908 22.0245C12.4142 22.1917 12.2845 22.3287 12.1218 22.4143C11.9591 22.4998 11.7726 22.529 11.5916 22.4973C11.4105 22.4657 11.2451 22.3749 11.1211 22.2391C10.9971 22.1034 10.9216 21.9305 10.9064 21.7473L10.1333 12.4724L0.85842 11.6993C0.675239 11.6841 0.502267 11.6086 0.366555 11.4846C0.230844 11.3606 0.140045 11.1952 0.108361 11.0141C0.0766772 10.8331 0.105894 10.6466 0.191442 10.4839C0.27699 10.3212 0.414045 10.1915 0.581173 10.1149L20.533 0.970359C20.6872 0.899673 20.8594 0.877873 21.0264 0.907887C21.1934 0.937902 21.3472 1.01829 21.4672 1.13827C21.5872 1.25824 21.6675 1.41205 21.6976 1.57904C21.7276 1.74603 21.7058 1.91821 21.6351 2.07245L21.6353 2.0727Z" fill="#080809"/>
</svg>
