<svg width="23" height="23" viewBox="0 0 23 23" fill="none" xmlns="http://www.w3.org/2000/svg">
<path d="M22.1782 2.0727L13.0336 22.0245C12.9571 22.1917 12.8274 22.3287 12.6647 22.4143C12.502 22.4998 12.3155 22.529 12.1345 22.4973C11.9534 22.4657 11.7879 22.3749 11.664 22.2391C11.54 22.1034 11.4645 21.9305 11.4493 21.7473L10.6762 12.4724L1.4013 11.6993C1.21812 11.6841 1.04514 11.6086 0.909433 11.4846C0.773721 11.3606 0.682923 11.1952 0.651239 11.0141C0.619554 10.8331 0.648771 10.6466 0.734319 10.4839C0.819867 10.3212 0.956922 10.1915 1.12405 10.1149L21.0759 0.970359C21.2301 0.899673 21.4023 0.877873 21.5693 0.907887C21.7363 0.937902 21.8901 1.01829 22.0101 1.13827C22.13 1.25824 22.2104 1.41205 22.2404 1.57904C22.2705 1.74603 22.2486 1.91821 22.178 2.07245L22.1782 2.0727Z" fill="#080809"/>
</svg>
