<svg width="23" height="23" viewBox="0 0 23 23" fill="none" xmlns="http://www.w3.org/2000/svg">
<path d="M21.9733 2.0727L12.8287 22.0245C12.7522 22.1917 12.6224 22.3287 12.4597 22.4143C12.297 22.4998 12.1106 22.529 11.9295 22.4973C11.7484 22.4657 11.583 22.3749 11.459 22.2391C11.335 22.1034 11.2595 21.9305 11.2443 21.7473L10.4712 12.4724L1.19634 11.6993C1.01316 11.6841 0.840188 11.6086 0.704477 11.4846C0.568765 11.3606 0.477967 11.1952 0.446282 11.0141C0.414598 10.8331 0.443815 10.6466 0.529363 10.4839C0.614911 10.3212 0.751966 10.1915 0.919094 10.1149L20.8709 0.970359C21.0252 0.899673 21.1973 0.877873 21.3643 0.907887C21.5313 0.937902 21.6851 1.01829 21.8051 1.13827C21.9251 1.25824 22.0055 1.41205 22.0355 1.57904C22.0655 1.74603 22.0437 1.91821 21.973 2.07245L21.9733 2.0727Z" fill="#080809"/>
</svg>
