<svg width="59" height="63" viewBox="0 0 59 63" fill="none" xmlns="http://www.w3.org/2000/svg">
<path d="M58.6423 34.9029V27.7634C58.6423 26.3638 57.5806 25.2293 56.2709 25.2293H53.7156C52.694 25.2293 51.7874 24.5298 51.4662 23.4933C51.1085 22.3387 50.6738 21.2216 50.1688 20.1488C49.7089 19.1717 49.8849 17.9905 50.6085 17.2171L52.4164 15.2852C53.3426 14.2955 53.3426 12.691 52.4164 11.7013L47.6922 6.65297C46.7661 5.66329 45.2647 5.66329 44.3385 6.65297L42.5306 8.5849C41.8069 9.35833 40.7015 9.54633 39.7872 9.05484C38.7833 8.51518 37.7379 8.05066 36.6574 7.66836C35.6875 7.32515 35.0329 6.3564 35.0329 5.2646V2.53414C35.0329 1.13455 33.9712 0 32.6615 0H25.9805C24.6708 0 23.6091 1.13455 23.6091 2.53414V5.26473C23.6091 6.35653 22.9545 7.32527 21.9846 7.66849C20.9041 8.05079 19.8587 8.5153 18.8548 9.05497C17.9405 9.54646 16.8351 9.35833 16.1114 8.58503L14.3035 6.65309C13.3774 5.66342 11.8759 5.66342 10.9498 6.65309L6.22581 11.7014C5.29969 12.6911 5.29969 14.2956 6.22581 15.2853L8.0337 17.2172C8.75735 17.9906 8.93339 19.1719 8.47346 20.1489C7.96845 21.2217 7.53376 22.3388 7.17601 23.4934C6.94899 24.2259 6.42971 24.79 5.78405 25.0579C5.51609 25.1692 5.34429 25.3554 5.04459 25.3554H2.48934C1.17962 25.3554 0.11792 26.4899 0.11792 27.8895V34.7768C0.11792 36.1764 1.17962 37.3109 2.48934 37.3109H5.04459C6.06629 37.3109 6.97283 38.1365 7.294 39.173C7.65176 40.3276 8.08644 41.4446 8.59145 42.5175C9.05139 43.4946 8.87534 44.6758 8.15169 45.4492L6.4618 47.3811C5.53567 48.3708 5.53567 49.9753 6.4618 50.965L10.95 55.7612C11.8761 56.7508 13.3776 56.7508 14.3037 55.7612L16.1116 53.8292C16.8352 53.0558 17.9407 52.8678 18.855 53.3593C19.8589 53.8989 21.1403 54.4895 22.2208 54.8718C23.1907 55.2151 23.8453 56.1838 23.8453 57.2756V60.0062C23.8453 61.4058 24.907 62.5403 26.2167 62.5403H32.5437C33.8535 62.5403 34.9152 61.4058 34.9152 60.0062V57.2756C34.9152 56.9553 35.0894 56.7718 35.1935 56.4854C35.4442 55.7954 35.9723 55.2405 36.6576 54.9979C37.738 54.6156 38.7834 54.1511 39.7873 53.6115C40.7016 53.12 41.807 53.3081 42.5308 54.0814L44.3386 56.0133C45.2648 57.003 46.7662 57.003 47.6924 56.0133L52.4165 50.965C53.3427 49.9753 53.3427 48.3708 52.4165 47.3811L50.6087 45.4492C49.885 44.6758 49.709 43.4946 50.1689 42.5175C50.6739 41.4447 51.1086 40.3276 51.4664 39.173C51.7875 38.1365 52.6941 37.437 53.7158 37.437H56.271C57.5806 37.437 58.6423 36.3024 58.6423 34.9029Z" fill="#B6C4CF"/>
<path d="M35.1937 56.4862C35.0899 56.7724 35.0332 57.0826 35.0332 57.4029V60.1327C35.0332 61.5323 33.9713 62.6671 32.6616 62.6671H25.9808C24.6711 62.6671 23.6092 61.5323 23.6092 60.1327V57.4029C23.6092 56.3109 22.9543 55.3413 21.9844 54.9983C20.9048 54.6163 19.8594 54.1523 18.8552 53.6126C17.9408 53.1209 16.8352 53.3088 16.1119 54.0817L14.3043 56.0134C13.378 57.0032 11.876 57.0032 10.9497 56.0134L6.2253 50.966C5.30023 49.9762 5.30023 48.3711 6.2253 47.3813L8.03413 45.4496C8.75742 44.6767 8.93323 43.4952 8.47306 42.518C7.96805 41.445 7.53384 40.3279 7.17632 39.1742C6.85538 38.1377 5.94801 37.4379 4.9262 37.4379H2.37165C1.06193 37.4379 0 36.3031 0 34.9035V27.7643C0 26.3648 1.06193 25.23 2.37165 25.23H4.9262C5.2259 25.23 5.51616 25.1694 5.784 25.0585C5.78164 25.2161 5.78046 25.375 5.78046 25.5338C5.78046 42.6303 18.7502 56.49 34.7489 56.49C34.8975 56.49 35.0462 56.4887 35.1937 56.4862Z" fill="#9FACBA"/>
<path d="M29.321 52.1375C40.0733 52.1375 48.7898 42.8229 48.7898 31.3328C48.7898 19.8427 40.0733 10.5281 29.321 10.5281C18.5687 10.5281 9.85217 19.8427 9.85217 31.3328C9.85217 42.8229 18.5687 52.1375 29.321 52.1375Z" fill="#9FACBA"/>
<path d="M29.3211 47.7259C37.7926 47.7259 44.6602 40.3872 44.6602 31.3343C44.6602 22.2815 37.7926 14.9427 29.3211 14.9427C20.8496 14.9427 13.9821 22.2815 13.9821 31.3343C13.9821 40.3872 20.8496 47.7259 29.3211 47.7259Z" fill="#F8F7F7"/>
</svg>
