<svg width="208" height="79" viewBox="0 0 208 79" fill="none" xmlns="http://www.w3.org/2000/svg">
<rect x="0.121826" y="0.270508" width="207.768" height="78.4902" rx="13.3012" fill="url(#paint0_linear_0_344)"/>
<path d="M51.9606 52.168C50.8566 52.168 49.8646 51.976 48.9846 51.592C48.1206 51.192 47.4406 50.648 46.9446 49.96C46.4486 49.256 46.1926 48.448 46.1766 47.536H48.5046C48.5846 48.32 48.9046 48.984 49.4646 49.528C50.0406 50.056 50.8726 50.32 51.9606 50.32C53.0006 50.32 53.8166 50.064 54.4086 49.552C55.0166 49.024 55.3206 48.352 55.3206 47.536C55.3206 46.896 55.1446 46.376 54.7926 45.976C54.4406 45.576 54.0006 45.272 53.4726 45.064C52.9446 44.856 52.2326 44.632 51.3366 44.392C50.2326 44.104 49.3446 43.816 48.6726 43.528C48.0166 43.24 47.4486 42.792 46.9686 42.184C46.5046 41.56 46.2726 40.728 46.2726 39.688C46.2726 38.776 46.5046 37.968 46.9686 37.264C47.4326 36.56 48.0806 36.016 48.9126 35.632C49.7606 35.248 50.7286 35.056 51.8166 35.056C53.3846 35.056 54.6646 35.448 55.6566 36.232C56.6646 37.016 57.2326 38.056 57.3606 39.352H54.9606C54.8806 38.712 54.5446 38.152 53.9526 37.672C53.3606 37.176 52.5766 36.928 51.6006 36.928C50.6886 36.928 49.9446 37.168 49.3686 37.648C48.7926 38.112 48.5046 38.768 48.5046 39.616C48.5046 40.224 48.6726 40.72 49.0086 41.104C49.3606 41.488 49.7846 41.784 50.2806 41.992C50.7926 42.184 51.5046 42.408 52.4166 42.664C53.5206 42.968 54.4086 43.272 55.0806 43.576C55.7526 43.864 56.3286 44.32 56.8086 44.944C57.2886 45.552 57.5286 46.384 57.5286 47.44C57.5286 48.256 57.3126 49.024 56.8806 49.744C56.4486 50.464 55.8086 51.048 54.9606 51.496C54.1126 51.944 53.1126 52.168 51.9606 52.168ZM72.4065 38.848V52H70.2225V50.056C69.8065 50.728 69.2225 51.256 68.4705 51.64C67.7345 52.008 66.9185 52.192 66.0225 52.192C64.9985 52.192 64.0785 51.984 63.2625 51.568C62.4465 51.136 61.7985 50.496 61.3185 49.648C60.8545 48.8 60.6225 47.768 60.6225 46.552V38.848H62.7825V46.264C62.7825 47.56 63.1105 48.56 63.7665 49.264C64.4225 49.952 65.3185 50.296 66.4545 50.296C67.6225 50.296 68.5425 49.936 69.2145 49.216C69.8865 48.496 70.2225 47.448 70.2225 46.072V38.848H72.4065ZM78.2781 41.296C78.7261 40.512 79.3821 39.872 80.2461 39.376C81.1101 38.88 82.0941 38.632 83.1981 38.632C84.3821 38.632 85.4461 38.912 86.3901 39.472C87.3341 40.032 88.0781 40.824 88.6221 41.848C89.1661 42.856 89.4381 44.032 89.4381 45.376C89.4381 46.704 89.1661 47.888 88.6221 48.928C88.0781 49.968 87.3261 50.776 86.3661 51.352C85.4221 51.928 84.3661 52.216 83.1981 52.216C82.0621 52.216 81.0621 51.968 80.1981 51.472C79.3501 50.976 78.7101 50.344 78.2781 49.576V52H76.0941V34.24H78.2781V41.296ZM87.2061 45.376C87.2061 44.384 87.0061 43.52 86.6061 42.784C86.2061 42.048 85.6621 41.488 84.9741 41.104C84.3021 40.72 83.5581 40.528 82.7421 40.528C81.9421 40.528 81.1981 40.728 80.5101 41.128C79.8381 41.512 79.2941 42.08 78.8781 42.832C78.4781 43.568 78.2781 44.424 78.2781 45.4C78.2781 46.392 78.4781 47.264 78.8781 48.016C79.2941 48.752 79.8381 49.32 80.5101 49.72C81.1981 50.104 81.9421 50.296 82.7421 50.296C83.5581 50.296 84.3021 50.104 84.9741 49.72C85.6621 49.32 86.2061 48.752 86.6061 48.016C87.0061 47.264 87.2061 46.384 87.2061 45.376ZM96.9688 52.216C95.9608 52.216 95.0568 52.048 94.2568 51.712C93.4568 51.36 92.8248 50.88 92.3608 50.272C91.8968 49.648 91.6408 48.936 91.5928 48.136H93.8488C93.9128 48.792 94.2168 49.328 94.7608 49.744C95.3208 50.16 96.0488 50.368 96.9448 50.368C97.7768 50.368 98.4328 50.184 98.9128 49.816C99.3928 49.448 99.6328 48.984 99.6328 48.424C99.6328 47.848 99.3768 47.424 98.8648 47.152C98.3528 46.864 97.5608 46.584 96.4888 46.312C95.5128 46.056 94.7128 45.8 94.0888 45.544C93.4808 45.272 92.9528 44.88 92.5048 44.368C92.0728 43.84 91.8568 43.152 91.8568 42.304C91.8568 41.632 92.0568 41.016 92.4568 40.456C92.8568 39.896 93.4248 39.456 94.1608 39.136C94.8968 38.8 95.7368 38.632 96.6808 38.632C98.1368 38.632 99.3128 39 100.209 39.736C101.105 40.472 101.585 41.48 101.649 42.76H99.4648C99.4168 42.072 99.1368 41.52 98.6248 41.104C98.1288 40.688 97.4568 40.48 96.6088 40.48C95.8248 40.48 95.2008 40.648 94.7368 40.984C94.2728 41.32 94.0408 41.76 94.0408 42.304C94.0408 42.736 94.1768 43.096 94.4488 43.384C94.7368 43.656 95.0888 43.88 95.5048 44.056C95.9368 44.216 96.5288 44.4 97.2808 44.608C98.2248 44.864 98.9928 45.12 99.5848 45.376C100.177 45.616 100.681 45.984 101.097 46.48C101.529 46.976 101.753 47.624 101.769 48.424C101.769 49.144 101.569 49.792 101.169 50.368C100.769 50.944 100.201 51.4 99.4648 51.736C98.7448 52.056 97.9128 52.216 96.9688 52.216ZM104.036 45.4C104.036 44.04 104.308 42.856 104.852 41.848C105.396 40.824 106.148 40.032 107.108 39.472C108.084 38.912 109.196 38.632 110.444 38.632C112.06 38.632 113.388 39.024 114.428 39.808C115.484 40.592 116.18 41.68 116.516 43.072H114.164C113.94 42.272 113.5 41.64 112.844 41.176C112.204 40.712 111.404 40.48 110.444 40.48C109.196 40.48 108.188 40.912 107.42 41.776C106.652 42.624 106.268 43.832 106.268 45.4C106.268 46.984 106.652 48.208 107.42 49.072C108.188 49.936 109.196 50.368 110.444 50.368C111.404 50.368 112.204 50.144 112.844 49.696C113.484 49.248 113.924 48.608 114.164 47.776H116.516C116.164 49.12 115.46 50.2 114.404 51.016C113.348 51.816 112.028 52.216 110.444 52.216C109.196 52.216 108.084 51.936 107.108 51.376C106.148 50.816 105.396 50.024 104.852 49C104.308 47.976 104.036 46.776 104.036 45.4ZM121.614 40.984C121.998 40.232 122.542 39.648 123.246 39.232C123.966 38.816 124.838 38.608 125.862 38.608V40.864H125.286C122.838 40.864 121.614 42.192 121.614 44.848V52H119.43V38.848H121.614V40.984ZM129.511 36.712C129.095 36.712 128.743 36.568 128.455 36.28C128.167 35.992 128.023 35.64 128.023 35.224C128.023 34.808 128.167 34.456 128.455 34.168C128.743 33.88 129.095 33.736 129.511 33.736C129.911 33.736 130.247 33.88 130.519 34.168C130.807 34.456 130.951 34.808 130.951 35.224C130.951 35.64 130.807 35.992 130.519 36.28C130.247 36.568 129.911 36.712 129.511 36.712ZM130.567 38.848V52H128.383V38.848H130.567ZM136.473 41.296C136.921 40.512 137.577 39.872 138.441 39.376C139.305 38.88 140.289 38.632 141.393 38.632C142.577 38.632 143.641 38.912 144.585 39.472C145.529 40.032 146.273 40.824 146.817 41.848C147.361 42.856 147.633 44.032 147.633 45.376C147.633 46.704 147.361 47.888 146.817 48.928C146.273 49.968 145.521 50.776 144.561 51.352C143.617 51.928 142.561 52.216 141.393 52.216C140.257 52.216 139.257 51.968 138.393 51.472C137.545 50.976 136.905 50.344 136.473 49.576V52H134.289V34.24H136.473V41.296ZM145.401 45.376C145.401 44.384 145.201 43.52 144.801 42.784C144.401 42.048 143.857 41.488 143.169 41.104C142.497 40.72 141.753 40.528 140.937 40.528C140.137 40.528 139.393 40.728 138.705 41.128C138.033 41.512 137.489 42.08 137.073 42.832C136.673 43.568 136.473 44.424 136.473 45.4C136.473 46.392 136.673 47.264 137.073 48.016C137.489 48.752 138.033 49.32 138.705 49.72C139.393 50.104 140.137 50.296 140.937 50.296C141.753 50.296 142.497 50.104 143.169 49.72C143.857 49.32 144.401 48.752 144.801 48.016C145.201 47.264 145.401 46.384 145.401 45.376ZM162.508 44.92C162.508 45.336 162.484 45.776 162.436 46.24H151.924C152.004 47.536 152.444 48.552 153.244 49.288C154.06 50.008 155.044 50.368 156.196 50.368C157.14 50.368 157.924 50.152 158.548 49.72C159.188 49.272 159.636 48.68 159.892 47.944H162.244C161.892 49.208 161.188 50.24 160.132 51.04C159.076 51.824 157.764 52.216 156.196 52.216C154.948 52.216 153.828 51.936 152.836 51.376C151.86 50.816 151.092 50.024 150.532 49C149.972 47.96 149.692 46.76 149.692 45.4C149.692 44.04 149.964 42.848 150.508 41.824C151.052 40.8 151.812 40.016 152.788 39.472C153.78 38.912 154.916 38.632 156.196 38.632C157.444 38.632 158.548 38.904 159.508 39.448C160.468 39.992 161.204 40.744 161.716 41.704C162.244 42.648 162.508 43.72 162.508 44.92ZM160.252 44.464C160.252 43.632 160.068 42.92 159.7 42.328C159.332 41.72 158.828 41.264 158.188 40.96C157.564 40.64 156.868 40.48 156.1 40.48C154.996 40.48 154.052 40.832 153.268 41.536C152.5 42.24 152.06 43.216 151.948 44.464H160.252Z" fill="white"/>
<defs>
<linearGradient id="paint0_linear_0_344" x1="104.006" y1="0.270508" x2="104.006" y2="78.7607" gradientUnits="userSpaceOnUse">
<stop stop-color="#FF946D"/>
<stop offset="1" stop-color="#FF7D68"/>
</linearGradient>
</defs>
</svg>
